# xmcd
#
# Track frame offsets: 
#        150
#        12233
#        26166
#        37830
#        51291
#        67679
#        80212
#        94321
#        109513
#        122476
#        137287
#        154172
#
# Disc length: 2260 seconds
#
# Revision: 0
# Processed by: cddbd v1.5.2PL0 Copyright (c) Steve Scherf et al.
# Submitted via: ExactAudioCopy v1.0b1
#
DISCID=8f08d20c
DTITLE=Hilde Fjørtoft - Gi Mej Ei Unnskyldning Til
DYEAR=2010
DGENRE=Country
TTITLE0=Kvar Gong Ej Tenke På Dej
TTITLE1=Krøkt Mej Rundt Finger'n
TTITLE2=Gi Mej Ei Unnskyldning Til
TTITLE3=Hade Bra
TTITLE4=En Dag Før Tida
TTITLE5=Liv å Futt
TTITLE6=Ensom Vei
TTITLE7=På En Liten Pub
TTITLE8=E Ditte Kjærligheit
TTITLE9=Åleine
TTITLE10=Ho He Dej
TTITLE11=Hæla i Take
EXTD=
EXTT0=
EXTT1=
EXTT2=
EXTT3=
EXTT4=
EXTT5=
EXTT6=
EXTT7=
EXTT8=
EXTT9=
EXTT10=
EXTT11=
PLAYORDER=
